::Release Info::
================
Release Title: Macon County Line (1974) Richard Compton

::IMDB and TMDB Info::
======================
TMDB Link: http://www.themoviedb.org/movie/42450
IMDB Link: http://www.imdb.com/title/tt0071788
Storyline: A vengeful Southern sheriff is out for blood after his wife is brutally killed by a pair of drifters. Low-budget film set in Georgia in 1953 and based on fact.
Genre: Drama | Indie
Release date: 01/01/1974

::Actors::
==========
Max Baer Jr. ... Deptuty Reed Morgan
Geoffrey Lewis ... Hamp
Leif Garrett ... Luke Morgan
Alan Vint ... Chris Dixon
Jesse Vint ... Wayne Dixon
Cheryl Waters ... Jenny Scott

General
=======
Complete name : Macon County Line (1974) Richard Compton.avi
Format : AVI
Format/Info : Audio Video Interleave
File size : 1.09 GiB
Duration : 1h 28mn
Overall bit rate mode : Variable
Overall bit rate : 1 773 Kbps
Writing application : VirtualDubMod 1.5.4.1 (build 2178/release)
Writing library : VirtualDubMod build 2178/release

Video
=====
ID : 0
Format : MPEG-4 Visual
Format profile : Advanced Simple@L5
Format settings, BVOP : 1
Format settings, QPel : No
Format settings, GMC : No warppoints
Format settings, Matrix : Custom
Codec ID : XVID
Codec ID/Hint : XviD
Duration : 1h 28mn
Bit rate : 1 660 Kbps
Width : 720 pixels
Height : 416 pixels
Display aspect ratio : 16:9
Frame rate : 23.976 fps
Color space : YUV
Chroma subsampling : 4:2:0
Bit depth : 8 bits
Scan type : Progressive
Compression mode : Lossy
Bits/(Pixel*Frame) : 0.231
Stream size : 1.02 GiB (94%)
Writing library : XviD 1.1.2 (UTC 2006-11-01)

Audio
=====
ID : 1
Format : MPEG Audio
Format version : Version 1
Format profile : Layer 3
Mode : Joint stereo
Mode extension : MS Stereo
Codec ID : 55
Codec ID/Hint : MP3
Duration : 1h 28mn
Bit rate mode : Variable
Bit rate : 100 Kbps
Channel(s) : 2 channels
Sampling rate : 48.0 KHz
Compression mode : Lossy
Stream size : 63.4 MiB (6%)
Alignment : Aligned on interleaves
Interleave, duration : 24 ms (0.58 video frame)
Interleave, preload duration : 160 ms
Writing library : LAME3.97
Language : English